<svg width="24" height="24" viewBox="0 0 24 24" fill="none" xmlns="http://www.w3.org/2000/svg">
<path d="M12 0C9.10042 0 6.75 2.64422 6.75 5.90625C6.75 8.54344 10.1813 13.35 11.4958 15.0947C11.7621 15.4481 12.2383 15.4481 12.5042 15.0947C13.8188 13.35 17.25 8.54344 17.25 5.90625C17.25 2.64422 14.8996 0 12 0ZM12 7.875C11.0333 7.875 10.25 6.99375 10.25 5.90625C10.25 4.81875 11.0333 3.9375 12 3.9375C12.9667 3.9375 13.75 4.81875 13.75 5.90625C13.75 6.99375 12.9667 7.875 12 7.875ZM0.838333 10.1227C0.590908 10.234 0.378804 10.4262 0.229379 10.6744C0.0799536 10.9226 5.92587e-05 11.2155 0 11.5153L0 23.2491C0 23.7797 0.47625 24.1425 0.914167 23.9456L6.66667 21V10.0744C6.29833 9.32531 5.99708 8.59594 5.78125 7.89844L0.838333 10.1227ZM12 16.8595C11.4138 16.8595 10.8592 16.5698 10.4788 16.0645C9.65958 14.977 8.78833 13.7386 8 12.4683V20.9995L16 23.9995V12.4688C15.2117 13.7386 14.3408 14.9775 13.5213 16.065C13.1408 16.5698 12.5863 16.8595 12 16.8595ZM23.0858 7.55438L17.3333 10.5V24L23.1617 21.3773C23.4091 21.2661 23.6213 21.0739 23.7707 20.8257C23.9201 20.5774 24 20.2845 24 19.9847V8.25094C24 7.72031 23.5238 7.3575 23.0858 7.55438Z" fill="#FCFCFC"/>
</svg>
