<svg width="24" height="24" viewBox="0 0 24 24" fill="none" xmlns="http://www.w3.org/2000/svg">
<path d="M6.34228 14.0837C6.43001 14.1704 6.57435 14.1704 6.66209 14.0837L9.54322 11.2361L11.98 13.6473C12.0677 13.734 12.2121 13.734 12.2998 13.6473L18.7045 7.31169C18.7923 7.22497 18.7923 7.08232 18.7045 6.9956L17.663 5.96624C17.5753 5.87952 17.431 5.87952 17.3432 5.96624L12.1413 11.1131L9.70454 8.70189C9.6168 8.61518 9.47246 8.61518 9.38473 8.70189L5.30077 12.7382C5.21303 12.825 5.21303 12.9676 5.30077 13.0543L6.34228 14.0837Z" fill="#FCFCFC"/>
<path d="M23.0943 2.01398H13.0189V0.223775C13.0189 0.100699 12.917 0 12.7925 0H11.2075C11.083 0 10.9811 0.100699 10.9811 0.223775V2.01398H0.90566C0.404717 2.01398 0 2.41398 0 2.90908V17.4545C0 17.9496 0.404717 18.3496 0.90566 18.3496H10.9925V19.2447L6.3283 22.2684C6.22359 22.3356 6.19528 22.4726 6.26321 22.5761L7.12075 23.8964V23.8992C7.18868 24.0027 7.33019 24.0307 7.43491 23.9635L12 21.0041L16.5651 23.9635C16.6698 24.0307 16.8113 24.0027 16.8792 23.8992V23.8964L17.7368 22.5761C17.8047 22.4726 17.7736 22.3356 17.6717 22.2684L13.0189 19.2531V18.3496H23.0943C23.5953 18.3496 24 17.9496 24 17.4545V2.90908C24 2.41398 23.5953 2.01398 23.0943 2.01398ZM21.9623 16.3356H2.03774V4.02796H21.9623V16.3356Z" fill="#FCFCFC"/>
</svg>
