<svg width="24" height="25" viewBox="0 0 24 25" fill="none" xmlns="http://www.w3.org/2000/svg">
<path d="M23.7883 13.7195L22.4444 15.1313L19.6892 12.2372L21.0332 10.8254C21.1714 10.6831 21.3571 10.6035 21.5506 10.6035C21.7441 10.6035 21.9299 10.6831 22.068 10.8254L23.7883 12.6325C24.0706 12.9289 24.0706 13.4231 23.7883 13.7195ZM10.7518 21.6113L18.8963 13.056L21.6514 15.9501L13.5204 24.5195H10.7518V21.6113ZM10.7518 14.6372C4.81142 14.6372 0 17.1642 0 20.2842V23.1078H8.06384V20.4395L13.4397 14.7925C12.5527 14.6795 11.6522 14.6372 10.7518 14.6372ZM10.7518 0.519531C9.32601 0.519531 7.95863 1.11449 6.95045 2.17352C5.94228 3.23255 5.37589 4.6689 5.37589 6.16659C5.37589 7.66428 5.94228 9.10064 6.95045 10.1597C7.95863 11.2187 9.32601 11.8136 10.7518 11.8136C12.1776 11.8136 13.5449 11.2187 14.5531 10.1597C15.5613 9.10064 16.1277 7.66428 16.1277 6.16659C16.1277 4.6689 15.5613 3.23255 14.5531 2.17352C13.5449 1.11449 12.1776 0.519531 10.7518 0.519531Z" fill="#FCFCFC"/>
</svg>
