<svg width="24" height="25" viewBox="0 0 24 25" fill="none" xmlns="http://www.w3.org/2000/svg">
<path d="M12 0.255859C9.62663 0.255859 7.30655 0.959647 5.33316 2.27822C3.35977 3.5968 1.8217 5.47094 0.913451 7.66366C0.00519935 9.85637 -0.232441 12.2692 0.230582 14.5969C0.693605 16.9247 1.83649 19.0629 3.51472 20.7411C5.19295 22.4194 7.33115 23.5623 9.65892 24.0253C11.9867 24.4883 14.3995 24.2507 16.5922 23.3424C18.7849 22.4342 20.6591 20.8961 21.9776 18.9227C23.2962 16.9493 24 14.6292 24 12.2559C24 9.07326 22.7357 6.02101 20.4853 3.77058C18.2348 1.52014 15.1826 0.255859 12 0.255859ZM18.8571 19.9007V19.3796C18.881 18.2108 18.4454 17.0793 17.6441 16.2281C16.8428 15.3769 15.7395 14.8739 14.5714 14.8273H9.42857C8.26145 14.8742 7.15938 15.3774 6.35948 16.2285C5.55958 17.0797 5.12578 18.2109 5.15143 19.3787C5.15143 19.3881 5.14286 19.3976 5.14286 19.407V19.9084C3.58792 18.5204 2.49115 16.693 1.99772 14.6679C1.50428 12.6428 1.63745 10.5157 2.3796 8.56798C3.12175 6.62027 4.43788 4.94386 6.15379 3.76064C7.86969 2.57742 9.90447 1.94318 11.9888 1.94188C14.0731 1.94058 16.1086 2.57227 17.826 3.75334C19.5434 4.93442 20.8616 6.60918 21.6062 8.55596C22.3508 10.5027 22.4866 12.6297 21.9957 14.6554C21.5048 16.6811 20.4103 18.5108 18.8571 19.9007Z" fill="#FCFCFC"/>
<path d="M12 4.54157C11.1524 4.54157 10.3238 4.79293 9.61899 5.26385C8.9142 5.73477 8.36489 6.4041 8.04052 7.18721C7.71614 7.97033 7.63127 8.83204 7.79663 9.66339C7.962 10.4947 8.37017 11.2584 8.96954 11.8577C9.56891 12.4571 10.3326 12.8653 11.1639 13.0307C11.9952 13.196 12.857 13.1111 13.6401 12.7868C14.4232 12.4624 15.0925 11.9131 15.5634 11.2083C16.0344 10.5035 16.2857 9.67492 16.2857 8.82729C16.2857 7.69064 15.8342 6.60056 15.0305 5.79683C14.2267 4.9931 13.1366 4.54157 12 4.54157Z" fill="#FCFCFC"/>
</svg>
