<svg width="15" height="15" fill="none" xmlns="http://www.w3.org/2000/svg"><path d="M6.818 15C3.053 15 0 11.642 0 7.5 0 3.358 3.053 0 6.818 0c1.059 0 2.103.27 3.05.79A7.008 7.008 0 0112.273 3h-1.848a5.252 5.252 0 00-2.796-1.433 5.008 5.008 0 00-3.056.465 5.64 5.64 0 00-2.338 2.214c-.57.97-.872 2.1-.872 3.255 0 1.155.303 2.285.873 3.255a5.64 5.64 0 002.338 2.213 5.008 5.008 0 003.056.465A5.253 5.253 0 0010.426 12h1.847a7.009 7.009 0 01-2.405 2.21 6.308 6.308 0 01-3.05.79zm4.773-4.5V8.25H6.136v-1.5h5.455V4.5L15 7.5l-3.41 3z" fill="#FCFCFC"/></svg>