<svg width="13" height="14" viewBox="0 0 13 14" fill="none" xmlns="http://www.w3.org/2000/svg">
<path d="M11.4726 7.27113C11.4977 7.07001 11.5144 6.86085 11.5144 6.64365C11.5144 6.42645 11.4977 6.21729 11.4643 6.01618L12.8766 4.9543C13.002 4.85776 13.0354 4.68078 12.9602 4.54402L11.623 2.31568C11.5395 2.17088 11.364 2.12261 11.2135 2.17088L9.55043 2.81444C9.19942 2.55702 8.8317 2.34786 8.42219 2.18697L8.17147 0.481523C8.1464 0.320632 8.00432 0.208008 7.83718 0.208008H5.16283C4.99568 0.208008 4.86196 0.320632 4.83689 0.481523L4.58617 2.18697C4.17666 2.34786 3.80058 2.56506 3.45793 2.81444L1.79482 2.17088C1.64439 2.11457 1.46888 2.17088 1.38531 2.31568L0.0481344 4.54402C-0.035439 4.68882 -0.00200954 4.85776 0.131708 4.9543L1.5441 6.01618C1.51067 6.21729 1.4856 6.43449 1.4856 6.64365C1.4856 6.85281 1.50231 7.07001 1.53574 7.27113L0.12335 8.33301C-0.00200971 8.42954 -0.035439 8.60652 0.039777 8.74328L1.37695 10.9716C1.46052 11.1164 1.63603 11.1647 1.78646 11.1164L3.44957 10.4729C3.80058 10.7303 4.1683 10.9394 4.57781 11.1003L4.82853 12.8058C4.86196 12.9667 4.99568 13.0793 5.16283 13.0793H7.83718C8.00432 13.0793 8.1464 12.9667 8.16311 12.8058L8.41383 11.1003C8.82334 10.9394 9.19942 10.7222 9.54207 10.4729L11.2052 11.1164C11.3556 11.1727 11.5311 11.1164 11.6147 10.9716L12.9519 8.74328C13.0354 8.59848 13.002 8.42954 12.8683 8.33301L11.4726 7.27113ZM6.5 9.05702C5.12104 9.05702 3.9928 7.971 3.9928 6.64365C3.9928 5.3163 5.12104 4.23029 6.5 4.23029C7.87896 4.23029 9.0072 5.3163 9.0072 6.64365C9.0072 7.971 7.87896 9.05702 6.5 9.05702Z" fill="white"/>
</svg>
