<svg width="16" height="14" viewBox="0 0 16 14" fill="none" xmlns="http://www.w3.org/2000/svg">
<path d="M5.60428 3.13715H7.18503V9.86405C7.18503 9.95154 7.26203 10.0231 7.35615 10.0231H8.63957C8.73369 10.0231 8.8107 9.95154 8.8107 9.86405V3.13715H10.3957C10.539 3.13715 10.6182 2.98404 10.5305 2.88064L8.13476 0.0610349C8.11875 0.0420219 8.0983 0.0266453 8.07495 0.0160705C8.0516 0.00549569 8.02597 0 8 0C7.97403 0 7.9484 0.00549569 7.92505 0.0160705C7.9017 0.0266453 7.88125 0.0420219 7.86524 0.0610349L5.46952 2.87865C5.38182 2.98404 5.46096 3.13715 5.60428 3.13715ZM15.8289 9.26751H14.5455C14.4513 9.26751 14.3743 9.3391 14.3743 9.42659V12.4888H1.62567V9.42659C1.62567 9.3391 1.54866 9.26751 1.45455 9.26751H0.171123C0.0770053 9.26751 0 9.3391 0 9.42659V13.3637C0 13.7157 0.305882 14 0.684492 14H15.3155C15.6941 14 16 13.7157 16 13.3637V9.42659C16 9.3391 15.923 9.26751 15.8289 9.26751Z" fill="white"/>
</svg>
