<svg width="24" height="24" viewBox="0 0 24 24" fill="none" xmlns="http://www.w3.org/2000/svg">
<path d="M12 0C9.62663 0 7.30655 0.703788 5.33316 2.02236C3.35977 3.34094 1.8217 5.21508 0.913451 7.4078C0.00519935 9.60051 -0.232441 12.0133 0.230582 14.3411C0.693605 16.6689 1.83649 18.807 3.51472 20.4853C5.19295 22.1635 7.33115 23.3064 9.65892 23.7694C11.9867 24.2324 14.3995 23.9948 16.5922 23.0865C18.7849 22.1783 20.6591 20.6402 21.9776 18.6668C23.2962 16.6934 24 14.3734 24 12C24 8.8174 22.7357 5.76515 20.4853 3.51472C18.2348 1.26428 15.1826 0 12 0ZM18.8571 19.6449V19.1237C18.881 17.9549 18.4454 16.8234 17.6441 15.9722C16.8428 15.121 15.7395 14.6181 14.5714 14.5714H9.42857C8.26145 14.6183 7.15938 15.1215 6.35948 15.9727C5.55958 16.8239 5.12578 17.9551 5.15143 19.1229C5.15143 19.1323 5.14286 19.1417 5.14286 19.1511V19.6526C3.58792 18.2646 2.49115 16.4371 1.99772 14.412C1.50428 12.387 1.63745 10.2598 2.3796 8.31212C3.12175 6.36441 4.43788 4.688 6.15379 3.50478C7.86969 2.32156 9.90447 1.68732 11.9888 1.68602C14.0731 1.68472 16.1086 2.31641 17.826 3.49749C19.5434 4.67856 20.8616 6.35332 21.6062 8.3001C22.3508 10.2469 22.4866 12.3739 21.9957 14.3995C21.5048 16.4252 20.4103 18.2549 18.8571 19.6449Z" fill="white"/>
<path d="M12 4.28571C11.1524 4.28571 10.3238 4.53707 9.61899 5.00799C8.9142 5.47891 8.36489 6.14824 8.04052 6.93136C7.71614 7.71447 7.63127 8.57618 7.79663 9.40753C7.962 10.2389 8.37017 11.0025 8.96954 11.6019C9.56891 12.2013 10.3326 12.6094 11.1639 12.7748C11.9952 12.9402 12.857 12.8553 13.6401 12.5309C14.4232 12.2065 15.0925 11.6572 15.5634 10.9524C16.0344 10.2477 16.2857 9.41906 16.2857 8.57143C16.2857 7.43478 15.8342 6.3447 15.0305 5.54097C14.2267 4.73724 13.1366 4.28571 12 4.28571Z" fill="white"/>
</svg>
